<svg width="31" height="31" viewBox="0 0 31 31" fill="none" xmlns="http://www.w3.org/2000/svg">
<path d="M15.5 0C24.0606 0 31 6.93935 31 15.5C31 24.0606 24.0606 31 15.5 31C6.93935 31 0 24.0606 0 15.5C0 6.93935 6.93935 0 15.5 0ZM17.05 6.2C16.6389 6.2 16.2447 6.3633 15.954 6.65398C15.6633 6.94467 15.5 7.33891 15.5 7.75V9.3H13.95V7.75C13.95 7.33891 13.7867 6.94467 13.496 6.65398C13.2053 6.3633 12.8111 6.2 12.4 6.2C11.9889 6.2 11.5947 6.3633 11.304 6.65398C11.0133 6.94467 10.85 7.33891 10.85 7.75V9.3H9.3C8.88891 9.3 8.49467 9.4633 8.20398 9.75398C7.9133 10.0447 7.75 10.4389 7.75 10.85C7.75 11.2611 7.9133 11.6553 8.20398 11.946C8.49467 12.2367 8.88891 12.4 9.3 12.4V18.6C8.88891 18.6 8.49467 18.7633 8.20398 19.054C7.9133 19.3447 7.75 19.7389 7.75 20.15C7.75 20.5611 7.9133 20.9553 8.20398 21.246C8.49467 21.5367 8.88891 21.7 9.3 21.7H10.85V23.25C10.85 23.6611 11.0133 24.0553 11.304 24.346C11.5947 24.6367 11.9889 24.8 12.4 24.8C12.8111 24.8 13.2053 24.6367 13.496 24.346C13.7867 24.0553 13.95 23.6611 13.95 23.25V21.7H15.5V23.25C15.5 23.6611 15.6633 24.0553 15.954 24.346C16.2447 24.6367 16.6389 24.8 17.05 24.8C17.4611 24.8 17.8553 24.6367 18.146 24.346C18.4367 24.0553 18.6 23.6611 18.6 23.25V21.7H19.375C20.0946 21.7 20.8001 21.4996 21.4122 21.1213C22.0244 20.7429 22.5191 20.2016 22.8409 19.558C23.1627 18.9143 23.299 18.1937 23.2343 17.477C23.1697 16.7603 22.9068 16.0757 22.475 15.5C22.9068 14.9243 23.1697 14.2397 23.2343 13.523C23.299 12.8063 23.1627 12.0857 22.8409 11.442C22.5191 10.7984 22.0244 10.2571 21.4122 9.87873C20.8001 9.50039 20.0946 9.3 19.375 9.3H18.6V7.75C18.6 7.33891 18.4367 6.94467 18.146 6.65398C17.8553 6.3633 17.4611 6.2 17.05 6.2ZM19.375 17.05C19.5805 17.05 19.7777 17.1317 19.923 17.277C20.0683 17.4223 20.15 17.6195 20.15 17.825C20.15 18.0305 20.0683 18.2277 19.923 18.373C19.7777 18.5183 19.5805 18.6 19.375 18.6H12.4V17.05H19.375ZM19.375 12.4C19.5687 12.3996 19.7554 12.4718 19.8986 12.6023C20.0417 12.7328 20.1308 12.9121 20.1483 13.105C20.1658 13.2978 20.1104 13.4903 19.9931 13.6444C19.8758 13.7985 19.7051 13.9031 19.5145 13.9376L19.375 13.95H12.4V12.4H19.375Z" fill="#FFBE17"/>
</svg>
