<svg width="20" height="20" viewBox="0 0 20 20" fill="none" xmlns="http://www.w3.org/2000/svg">
<g clip-path="url(#clip0_13_20)">
<g clip-path="url(#clip1_13_20)">
<path d="M11.7667 7.56828L10.5254 5.05316C10.4267 4.85316 10.223 4.72656 9.99999 4.72656C9.77699 4.72656 9.57327 4.8532 9.47456 5.05316L8.23327 7.56828L5.45764 7.97164C5.23694 8.00371 5.05354 8.15828 4.98464 8.37043C4.91569 8.58257 4.97319 8.81536 5.13288 8.97107L7.14136 10.9289L6.66722 13.6932C6.62952 13.9131 6.71987 14.1352 6.9003 14.2664C7.08077 14.3974 7.31999 14.4147 7.51734 14.3109L9.99999 13.0057L12.4826 14.3109C12.6811 14.4153 12.9203 14.3966 13.0996 14.2662C13.2801 14.1351 13.3705 13.913 13.3327 13.6931L12.8586 10.9287L14.8671 8.971C15.0268 8.81528 15.0843 8.58243 15.0153 8.37036C14.9464 8.15821 14.7631 8.00364 14.5423 7.97157L11.7667 7.56828ZM11.8201 10.3046C11.6819 10.4393 11.6189 10.6332 11.6515 10.8233L11.9771 12.7211L10.2726 11.8251C10.1873 11.7802 10.0936 11.7578 9.99999 11.7578C9.90635 11.7578 9.8127 11.7802 9.72735 11.8251L8.02299 12.7211L8.34849 10.8233C8.38106 10.6332 8.31806 10.4393 8.17999 10.3046L6.80109 8.96057L8.70663 8.68371C8.89749 8.656 9.06249 8.53607 9.14777 8.36314L9.99999 6.63644L10.8522 8.36314C10.9376 8.53607 11.1026 8.656 11.2933 8.68371L13.1989 8.96057L11.8201 10.3046Z" fill="white"/>
<path d="M10 0C4.49379 0 0 4.49414 0 10C0 15.5062 4.49414 20 10 20C15.5062 20 20 15.5059 20 10C20 4.49379 15.5059 0 10 0ZM10 18.8281C5.13215 18.8281 1.17187 14.8679 1.17187 10C1.17187 5.13215 5.13215 1.17187 10 1.17187C14.8679 1.17187 18.8281 5.13215 18.8281 10C18.8281 14.8679 14.8679 18.8281 10 18.8281Z" fill="white"/>
<path d="M10 2.34375C5.79539 2.34375 2.34375 5.79504 2.34375 10C2.34375 14.2046 5.79504 17.6563 10 17.6563C14.2046 17.6563 17.6563 14.2049 17.6563 10C17.6563 5.79539 14.2049 2.34375 10 2.34375ZM10 16.4844C6.42449 16.4844 3.51563 13.5755 3.51563 10C3.51563 6.42449 6.42449 3.51563 10 3.51563C13.5755 3.51563 16.4844 6.42449 16.4844 10C16.4844 13.5755 13.5755 16.4844 10 16.4844Z" fill="white"/>
</g>
</g>
<defs>
<clipPath id="clip0_13_20">
<rect width="20" height="20" fill="white"/>
</clipPath>
<clipPath id="clip1_13_20">
<rect width="20" height="20" fill="white"/>
</clipPath>
</defs>
</svg>
