<svg width="20" height="20" viewBox="0 0 20 20" fill="none" xmlns="http://www.w3.org/2000/svg">
<g clip-path="url(#clip0_13_21)">
<path d="M17.0867 10.4925C16.6152 9.89165 15.9038 9.47896 14.9524 9.2547C16.1639 8.64564 16.6963 7.61195 16.5502 6.15344C16.5013 5.62456 16.353 5.16618 16.1049 4.77765C15.8566 4.38904 15.5216 4.07663 15.0985 3.84029C14.6757 3.60365 14.2159 3.42351 13.7202 3.29932C13.2244 3.17513 12.6551 3.08495 12.0127 3.02892V0H10.1347V2.94477C9.80947 2.94477 9.31352 2.95277 8.64686 2.9688V0H6.76856V3.02892C6.50017 3.03696 6.10588 3.04104 5.58554 3.04104L3 3.02892V5.00015H4.35369C4.97164 5.00015 5.33346 5.27265 5.43914 5.81745V9.26713C5.52056 9.26713 5.58554 9.27122 5.63436 9.27922H5.43914V14.1109C5.37417 14.5194 5.13841 14.7239 4.73182 14.7239H3.37822L3.00009 16.9235H5.43935C5.59387 16.9235 5.81733 16.9256 6.11015 16.9291C6.40281 16.9332 6.62225 16.9352 6.76865 16.9352V20.0001H8.64725V16.9712C8.98865 16.9795 9.48461 16.9834 10.1351 16.9834V20.0001H12.0131V16.9352C12.68 16.9032 13.2715 16.8435 13.7876 16.755C14.3039 16.6665 14.7979 16.5285 15.2695 16.3401C15.7409 16.1519 16.1351 15.9174 16.4522 15.637C16.7695 15.3567 17.0314 15 17.2391 14.5672C17.4461 14.1344 17.5784 13.6337 17.6351 13.0646C17.7413 11.951 17.5583 11.0936 17.0867 10.4925ZM8.68339 5.132C8.74033 5.132 8.90091 5.12998 9.16516 5.12594C9.42954 5.12181 9.64898 5.11785 9.82378 5.11382C9.99863 5.10986 10.2344 5.11988 10.5313 5.14391C10.8281 5.16796 11.0781 5.20008 11.2813 5.24007C11.4845 5.28006 11.7083 5.3462 11.952 5.43836C12.1961 5.53043 12.3911 5.64266 12.5373 5.77484C12.6838 5.90703 12.8077 6.07539 12.9092 6.27974C13.011 6.48404 13.0618 6.71841 13.0618 6.98278C13.0618 7.20717 13.0253 7.41156 12.9521 7.59596C12.8792 7.78022 12.7691 7.93451 12.623 8.0587C12.4767 8.18294 12.326 8.29122 12.1715 8.38329C12.0172 8.47536 11.8199 8.54953 11.5801 8.60557C11.3404 8.66168 11.131 8.70574 10.9522 8.73774C10.7733 8.76983 10.5498 8.79191 10.2814 8.80391C10.013 8.81583 9.80968 8.824 9.67153 8.828C9.53326 8.83191 9.34428 8.83191 9.10433 8.828C8.86434 8.824 8.72427 8.82191 8.68352 8.82191V5.13196H8.68339V5.132ZM13.8121 13.3171C13.7346 13.5015 13.6352 13.6619 13.5133 13.7982C13.3912 13.9342 13.2305 14.0545 13.0315 14.1585C12.8324 14.2629 12.6391 14.3468 12.4523 14.411C12.2651 14.4753 12.0394 14.531 11.7754 14.5793C11.5108 14.6275 11.2793 14.6613 11.0799 14.6815C10.8807 14.7016 10.643 14.7175 10.3665 14.7297C10.0901 14.7414 9.87454 14.7475 9.72011 14.7475C9.5656 14.7475 9.37042 14.7453 9.13462 14.7414C8.89869 14.7377 8.74841 14.7357 8.68331 14.7357V10.6729C8.74827 10.6729 8.9414 10.669 9.26264 10.6608C9.58392 10.6528 9.84599 10.649 10.0493 10.649C10.2525 10.649 10.5332 10.6608 10.891 10.685C11.2486 10.7089 11.5495 10.7448 11.7936 10.7929C12.0374 10.841 12.3035 10.915 12.5923 11.0153C12.8809 11.1155 13.1148 11.2377 13.2937 11.3818C13.4726 11.5263 13.623 11.7103 13.7449 11.9348C13.8671 12.159 13.928 12.4156 13.928 12.7041C13.928 12.9287 13.8895 13.1327 13.8121 13.3171Z" fill="white"/>
</g>
<defs>
<clipPath id="clip0_13_21">
<rect width="15" height="20" fill="white" transform="translate(3)"/>
</clipPath>
</defs>
</svg>
