<svg width="20" height="20" viewBox="0 0 20 20" fill="none" xmlns="http://www.w3.org/2000/svg">
<g clip-path="url(#clip0_13_18)">
<path d="M12.486 11.5944C12.6039 11.3325 12.6755 11.0428 12.6755 10.7336V10.4056C12.6755 9.29834 11.8283 8.39721 10.7873 8.39721H10.5868V8.22365C10.5868 7.82269 10.2817 7.49823 9.90481 7.49823C9.52781 7.49823 9.22274 7.82269 9.22274 8.22365V8.39721H7.75412C7.37718 8.39721 7.07214 8.72167 7.07214 9.12263C7.07214 9.52359 7.37718 9.84808 7.75412 9.84808H7.84743V14.1849H7.75412C7.37718 14.1849 7.07214 14.5094 7.07214 14.9104C7.07214 15.3113 7.37718 15.6358 7.75412 15.6358H9.22274V15.8094C9.22274 16.2103 9.52781 16.5348 9.90481 16.5348C10.2817 16.5348 10.5868 16.2103 10.5868 15.8094V15.6358H11.5006C12.5416 15.6358 13.3888 14.7347 13.3888 13.6274V13.2994C13.3888 12.5774 13.0253 11.9484 12.486 11.5944ZM11.3114 10.4056V10.7336C11.3114 11.041 11.0764 11.2911 10.7873 11.2911H9.21143V9.84808H10.7873C11.0764 9.84808 11.3114 10.0981 11.3114 10.4056ZM12.0247 13.6274C12.0247 13.9349 11.7897 14.1849 11.5006 14.1849H9.21143V12.7419H11.5006C11.7897 12.7419 12.0247 12.992 12.0247 13.2994V13.6274Z" fill="white"/>
<path d="M19.3622 12.8646C19.2799 12.8273 19.1897 12.8063 19.0946 12.8063C19.0923 12.8063 19.0903 12.8076 19.0879 12.8076H16.7968V11.225H19.0879C19.0903 11.2251 19.0923 11.2265 19.0946 11.2265C19.1897 11.2265 19.2799 11.2054 19.3622 11.1681C19.607 11.058 19.7786 10.8003 19.7786 10.4996C19.7786 10.4959 19.7766 10.4928 19.7766 10.4891V8.35172C19.7766 7.95075 19.4716 7.6263 19.0946 7.6263C18.7176 7.6263 18.4126 7.95075 18.4126 8.35172V9.77424H16.7968V8.16469C16.7968 6.43758 15.4754 5.03208 13.8516 5.03208H13.6917V4.79476C13.6917 2.76515 12.1392 1.11383 10.2303 1.11383C8.32148 1.11383 6.769 2.76515 6.769 4.79476V5.03208H6.60915C4.98536 5.03208 3.66395 6.43758 3.66395 8.16469V9.77424H2.04816V8.35172C2.04816 7.95075 1.74312 7.6263 1.36614 7.6263C0.989167 7.6263 0.684127 7.95075 0.684127 8.35172V10.4891C0.684085 10.4928 0.682129 10.496 0.682129 10.4996C0.682129 10.8003 0.853759 11.058 1.09861 11.1681C1.18082 11.2054 1.27103 11.2265 1.36614 11.2265C1.36847 11.2265 1.37043 11.2251 1.37276 11.225H3.66395V12.8076H1.37276C1.37043 12.8076 1.36847 12.8063 1.36614 12.8063C1.27103 12.8063 1.18082 12.8273 1.09861 12.8646C0.853759 12.9746 0.682129 13.2324 0.682129 13.533C0.682129 13.5368 0.684085 13.5399 0.684127 13.5436V15.681C0.684127 16.0819 0.989167 16.4064 1.36614 16.4064C1.74312 16.4064 2.04816 16.0819 2.04816 15.681V14.2585H3.66395V15.868C3.66395 17.5952 4.98536 18.9999 6.60915 18.9999H13.8516C15.4754 18.9999 16.7968 17.5952 16.7968 15.868V14.2585H18.4126V15.681C18.4126 16.0819 18.7176 16.4064 19.0946 16.4064C19.4716 16.4064 19.7766 16.0819 19.7766 15.681V13.5436C19.7766 13.5399 19.7786 13.5368 19.7786 13.533C19.7786 13.2324 19.607 12.9746 19.3622 12.8646ZM8.13302 4.79476C8.13302 3.56495 9.0741 2.56466 10.2303 2.56466C11.3866 2.56466 12.3277 3.56495 12.3277 4.79476V5.03208H8.13302V4.79476ZM15.4327 15.868C15.4327 16.7946 14.7234 17.5491 13.8516 17.5491H6.60915C5.73731 17.5491 5.02799 16.7946 5.02799 15.868V8.16469C5.02799 7.23738 5.73731 6.48291 6.60915 6.48291H13.8516C14.7234 6.48291 15.4327 7.23738 15.4327 8.16469V15.868Z" fill="white"/>
</g>
<defs>
<clipPath id="clip0_13_18">
<rect width="20" height="18" fill="white" transform="translate(0 1)"/>
</clipPath>
</defs>
</svg>
