<svg width="20" height="20" viewBox="0 0 20 20" fill="none" xmlns="http://www.w3.org/2000/svg">
<g clip-path="url(#clip0_13_19)">
<g clip-path="url(#clip1_13_19)">
<path d="M16.1735 5.6107L12.8716 5.11004L11.3949 1.98792C10.8246 0.781927 9.17527 0.782294 8.60519 1.98788L7.12847 5.11L3.82656 5.6107C2.55105 5.80408 2.04191 7.44082 2.96449 8.3793L5.35379 10.8096L4.78976 14.241C4.57191 15.5666 5.90624 16.5776 7.04675 15.9522L10.0001 14.3319L12.9534 15.9522C14.0924 16.5769 15.4283 15.5663 15.2104 14.241L14.6464 10.8095L17.0358 8.37926C17.9584 7.44046 17.4484 5.80403 16.1735 5.6107ZM16.1049 7.38302L13.4646 10.0685C13.3075 10.2283 13.2359 10.4586 13.2729 10.6843L13.8962 14.4763C13.9275 14.6667 13.7376 14.8105 13.5738 14.7207L10.3103 12.9303C10.116 12.8239 9.88402 12.8239 9.68977 12.9303L6.42624 14.7207C6.26234 14.8106 6.07254 14.6667 6.10382 14.4763L6.7271 10.6843C6.76418 10.4586 6.69249 10.2283 6.53539 10.0685L3.89511 7.38302C3.76249 7.24815 3.83504 7.01532 4.01828 6.98748L7.66703 6.43423C7.88414 6.4013 8.07187 6.25905 8.16898 6.05374L9.80077 2.60361C9.88269 2.43046 10.1174 2.43034 10.1993 2.60365L11.8311 6.05374C11.9282 6.25905 12.1159 6.40135 12.333 6.43423L15.9818 6.98748C16.165 7.01532 16.2375 7.24819 16.1049 7.38302Z" fill="white"/>
<path d="M5.26285 1.43187L4.46554 0.286776C4.24906 -0.0239852 3.83218 -0.092953 3.53436 0.132944C3.23651 0.358759 3.17046 0.793801 3.38691 1.1046L4.18421 2.24966C4.40077 2.56058 4.81765 2.62926 5.11538 2.40349C5.41323 2.17771 5.47929 1.74267 5.26285 1.43187Z" fill="white"/>
<path d="M2.6171 11.6935C2.50338 11.3282 2.12729 11.1281 1.77706 11.2469L0.460807 11.6932C0.110651 11.8119 -0.0809506 12.2043 0.0327994 12.5697C0.146745 12.9357 0.523463 13.1349 0.872842 13.0163L2.18909 12.5701C2.53928 12.4514 2.73088 12.0589 2.6171 11.6935Z" fill="white"/>
<path d="M16.4655 0.13292C16.1677 -0.0928947 15.7508 -0.0240496 15.5343 0.286751L14.737 1.43181C14.5205 1.74261 14.5866 2.17769 14.8845 2.40346C15.1825 2.62936 15.5993 2.56031 15.8156 2.24963L16.613 1.10457C16.8294 0.793776 16.7634 0.358695 16.4655 0.13292Z" fill="white"/>
<path d="M19.5391 11.6932L18.2229 11.247C17.8727 11.128 17.4966 11.3282 17.3828 11.6936C17.269 12.059 17.4606 12.4515 17.8109 12.5702L19.127 13.0165C19.4764 13.135 19.8532 12.9358 19.9671 12.5698C20.0809 12.2045 19.8893 11.812 19.5391 11.6932Z" fill="white"/>
<path d="M9.99996 17.0864C9.63179 17.0864 9.33337 17.3979 9.33337 17.7821V19.1939C9.33337 19.5781 9.63179 19.8896 9.99996 19.8896C10.3681 19.8896 10.6666 19.5781 10.6666 19.1939V17.7821C10.6667 17.3978 10.3682 17.0864 9.99996 17.0864Z" fill="white"/>
</g>
</g>
<defs>
<clipPath id="clip0_13_19">
<rect width="20" height="20" fill="white"/>
</clipPath>
<clipPath id="clip1_13_19">
<rect width="20" height="20" fill="white"/>
</clipPath>
</defs>
</svg>
