<svg width="185" height="31" viewBox="0 0 185 31" fill="none" xmlns="http://www.w3.org/2000/svg">
<g clip-path="url(#clip0_1_5)">
<path d="M46.781 24.33C44.713 24.33 42.931 23.989 41.435 23.307C39.939 22.625 38.773 21.624 37.937 20.304C37.123 18.984 36.672 17.345 36.584 15.387C36.562 14.485 36.551 13.517 36.551 12.483C36.551 11.449 36.562 10.459 36.584 9.513C36.672 7.599 37.134 5.971 37.97 4.629C38.806 3.287 39.972 2.275 41.468 1.593C42.964 0.910999 44.735 0.569999 46.781 0.569999C48.233 0.569999 49.575 0.756999 50.807 1.131C52.039 1.483 53.117 2.011 54.041 2.715C54.965 3.397 55.68 4.233 56.186 5.223C56.714 6.191 56.989 7.291 57.011 8.523C57.033 8.721 56.967 8.886 56.813 9.018C56.681 9.15 56.516 9.216 56.318 9.216H51.863C51.577 9.216 51.357 9.161 51.203 9.051C51.049 8.919 50.917 8.688 50.807 8.358C50.499 7.192 49.993 6.4 49.289 5.982C48.607 5.542 47.76 5.322 46.748 5.322C45.538 5.322 44.581 5.663 43.877 6.345C43.173 7.005 42.788 8.116 42.722 9.678C42.656 11.482 42.656 13.33 42.722 15.222C42.788 16.784 43.173 17.906 43.877 18.588C44.581 19.248 45.538 19.578 46.748 19.578C47.76 19.578 48.618 19.358 49.322 18.918C50.026 18.478 50.521 17.686 50.807 16.542C50.895 16.212 51.016 15.992 51.17 15.882C51.346 15.75 51.577 15.684 51.863 15.684H56.318C56.516 15.684 56.681 15.75 56.813 15.882C56.967 16.014 57.033 16.179 57.011 16.377C56.989 17.609 56.714 18.72 56.186 19.71C55.68 20.678 54.965 21.514 54.041 22.218C53.117 22.9 52.039 23.428 50.807 23.802C49.575 24.154 48.233 24.33 46.781 24.33ZM60.9429 24C60.7009 24 60.5029 23.923 60.3489 23.769C60.1949 23.593 60.1179 23.395 60.1179 23.175V7.665C60.1179 7.445 60.1949 7.258 60.3489 7.104C60.5029 6.928 60.7009 6.84 60.9429 6.84H64.7379C64.9799 6.84 65.1779 6.928 65.3319 7.104C65.5079 7.258 65.5959 7.445 65.5959 7.665V8.985C66.1679 8.303 66.8609 7.775 67.6749 7.401C68.5109 7.027 69.4459 6.84 70.4799 6.84H71.9319C72.1739 6.84 72.3719 6.917 72.5259 7.071C72.6799 7.225 72.7569 7.423 72.7569 7.665V11.064C72.7569 11.284 72.6799 11.482 72.5259 11.658C72.3719 11.812 72.1739 11.889 71.9319 11.889H68.7309C67.8289 11.889 67.1249 12.142 66.6189 12.648C66.1349 13.132 65.8929 13.825 65.8929 14.727V23.175C65.8929 23.395 65.8049 23.593 65.6289 23.769C65.4749 23.923 65.2769 24 65.0349 24H60.9429ZM78.3043 30.27C78.1063 30.27 77.9413 30.204 77.8093 30.072C77.6773 29.94 77.6113 29.775 77.6113 29.577C77.6113 29.533 77.6113 29.467 77.6113 29.379C77.6333 29.313 77.6663 29.236 77.7103 29.148L80.2843 22.944L73.9483 7.962C73.8823 7.808 73.8493 7.676 73.8493 7.566C73.8933 7.368 73.9813 7.203 74.1133 7.071C74.2453 6.917 74.4103 6.84 74.6083 6.84H78.3703C78.6563 6.84 78.8653 6.917 78.9973 7.071C79.1513 7.203 79.2613 7.357 79.3273 7.533L83.0893 17.136L86.9503 7.533C87.0383 7.357 87.1483 7.203 87.2803 7.071C87.4343 6.917 87.6543 6.84 87.9403 6.84H91.6363C91.8343 6.84 91.9993 6.917 92.1313 7.071C92.2853 7.203 92.3623 7.357 92.3623 7.533C92.3623 7.643 92.3293 7.786 92.2633 7.962L82.9243 29.577C82.8583 29.753 82.7483 29.907 82.5943 30.039C82.4403 30.193 82.2203 30.27 81.9343 30.27H78.3043ZM95.6187 30.27C95.3767 30.27 95.1787 30.182 95.0247 30.006C94.8707 29.852 94.7937 29.665 94.7937 29.445V7.665C94.7937 7.423 94.8707 7.225 95.0247 7.071C95.1787 6.917 95.3767 6.84 95.6187 6.84H99.3477C99.5677 6.84 99.7547 6.917 99.9087 7.071C100.085 7.225 100.173 7.423 100.173 7.665V8.853C100.701 8.193 101.383 7.643 102.219 7.203C103.055 6.741 104.078 6.51 105.288 6.51C106.388 6.51 107.356 6.686 108.192 7.038C109.028 7.368 109.743 7.863 110.337 8.523C110.953 9.183 111.426 9.986 111.756 10.932C112.086 11.878 112.273 12.967 112.317 14.199C112.339 14.639 112.35 15.046 112.35 15.42C112.35 15.794 112.339 16.201 112.317 16.641C112.273 17.829 112.086 18.896 111.756 19.842C111.426 20.788 110.964 21.591 110.37 22.251C109.776 22.911 109.05 23.428 108.192 23.802C107.356 24.154 106.388 24.33 105.288 24.33C104.21 24.33 103.264 24.143 102.45 23.769C101.658 23.373 100.998 22.823 100.47 22.119V29.445C100.47 29.665 100.393 29.852 100.239 30.006C100.085 30.182 99.8867 30.27 99.6447 30.27H95.6187ZM103.506 19.908C104.254 19.908 104.837 19.754 105.255 19.446C105.673 19.138 105.97 18.72 106.146 18.192C106.344 17.664 106.465 17.081 106.509 16.443C106.553 15.761 106.553 15.079 106.509 14.397C106.465 13.759 106.344 13.176 106.146 12.648C105.97 12.12 105.673 11.702 105.255 11.394C104.837 11.086 104.254 10.932 103.506 10.932C102.802 10.932 102.23 11.097 101.79 11.427C101.35 11.735 101.031 12.142 100.833 12.648C100.635 13.154 100.514 13.704 100.47 14.298C100.448 14.716 100.437 15.123 100.437 15.519C100.437 15.915 100.448 16.333 100.47 16.773C100.492 17.323 100.613 17.84 100.833 18.324C101.053 18.786 101.383 19.171 101.823 19.479C102.263 19.765 102.824 19.908 103.506 19.908ZM124.293 24C122.885 24 121.664 23.78 120.63 23.34C119.618 22.878 118.837 22.174 118.287 21.228C117.737 20.26 117.462 19.017 117.462 17.499V11.163H114.888C114.646 11.163 114.437 11.086 114.261 10.932C114.107 10.778 114.03 10.58 114.03 10.338V7.665C114.03 7.423 114.107 7.225 114.261 7.071C114.437 6.917 114.646 6.84 114.888 6.84H117.462V1.395C117.462 1.153 117.539 0.954999 117.693 0.801C117.869 0.646999 118.067 0.569999 118.287 0.569999H122.115C122.357 0.569999 122.555 0.646999 122.709 0.801C122.863 0.954999 122.94 1.153 122.94 1.395V6.84H127.065C127.307 6.84 127.505 6.917 127.659 7.071C127.835 7.225 127.923 7.423 127.923 7.665V10.338C127.923 10.58 127.835 10.778 127.659 10.932C127.505 11.086 127.307 11.163 127.065 11.163H122.94V17.037C122.94 17.785 123.083 18.379 123.369 18.819C123.655 19.259 124.139 19.479 124.821 19.479H127.362C127.604 19.479 127.802 19.556 127.956 19.71C128.11 19.864 128.187 20.062 128.187 20.304V23.175C128.187 23.395 128.11 23.593 127.956 23.769C127.802 23.923 127.604 24 127.362 24H124.293ZM139.038 24.33C137.19 24.33 135.628 24.033 134.352 23.439C133.098 22.845 132.13 21.998 131.448 20.898C130.788 19.776 130.414 18.445 130.326 16.905C130.304 16.465 130.293 15.97 130.293 15.42C130.293 14.848 130.304 14.353 130.326 13.935C130.414 12.373 130.81 11.042 131.514 9.942C132.218 8.842 133.197 7.995 134.451 7.401C135.727 6.807 137.256 6.51 139.038 6.51C140.842 6.51 142.371 6.807 143.625 7.401C144.901 7.995 145.891 8.842 146.595 9.942C147.299 11.042 147.695 12.373 147.783 13.935C147.805 14.353 147.816 14.848 147.816 15.42C147.816 15.97 147.805 16.465 147.783 16.905C147.695 18.445 147.31 19.776 146.628 20.898C145.968 21.998 145 22.845 143.724 23.439C142.47 24.033 140.908 24.33 139.038 24.33ZM139.038 20.304C140.028 20.304 140.743 20.007 141.183 19.413C141.645 18.819 141.909 17.928 141.975 16.74C141.997 16.41 142.008 15.97 142.008 15.42C142.008 14.87 141.997 14.43 141.975 14.1C141.909 12.934 141.645 12.054 141.183 11.46C140.743 10.844 140.028 10.536 139.038 10.536C138.092 10.536 137.377 10.844 136.893 11.46C136.431 12.054 136.178 12.934 136.134 14.1C136.112 14.43 136.101 14.87 136.101 15.42C136.101 15.97 136.112 16.41 136.134 16.74C136.178 17.928 136.431 18.819 136.893 19.413C137.377 20.007 138.092 20.304 139.038 20.304ZM151.064 24C150.844 24 150.646 23.923 150.47 23.769C150.316 23.593 150.239 23.395 150.239 23.175V20.601C150.239 20.359 150.283 20.15 150.371 19.974C150.481 19.776 150.613 19.611 150.767 19.479L158.489 11.097H151.361C151.119 11.097 150.91 11.02 150.734 10.866C150.58 10.712 150.503 10.514 150.503 10.272V7.665C150.503 7.423 150.58 7.225 150.734 7.071C150.91 6.917 151.119 6.84 151.361 6.84H164.627C164.847 6.84 165.034 6.917 165.188 7.071C165.364 7.225 165.452 7.423 165.452 7.665V10.47C165.452 10.668 165.408 10.844 165.32 10.998C165.232 11.152 165.122 11.306 164.99 11.46L157.466 19.743H165.287C165.529 19.743 165.727 19.82 165.881 19.974C166.057 20.128 166.145 20.326 166.145 20.568V23.175C166.145 23.395 166.057 23.593 165.881 23.769C165.727 23.923 165.529 24 165.287 24H151.064ZM174.321 24.33C173.133 24.33 172.066 24.11 171.12 23.67C170.196 23.208 169.459 22.592 168.909 21.822C168.359 21.052 168.084 20.183 168.084 19.215C168.084 17.653 168.722 16.421 169.998 15.519C171.274 14.595 172.968 13.968 175.08 13.638L179.205 13.011V12.549C179.205 11.757 179.04 11.152 178.71 10.734C178.38 10.316 177.775 10.107 176.895 10.107C176.279 10.107 175.773 10.228 175.377 10.47C175.003 10.712 174.706 11.042 174.486 11.46C174.288 11.746 174.013 11.889 173.661 11.889H169.965C169.723 11.889 169.536 11.823 169.404 11.691C169.272 11.537 169.217 11.361 169.239 11.163C169.239 10.767 169.382 10.316 169.668 9.81C169.976 9.282 170.438 8.765 171.054 8.259C171.67 7.753 172.462 7.335 173.43 7.005C174.398 6.675 175.575 6.51 176.961 6.51C178.369 6.51 179.579 6.675 180.591 7.005C181.603 7.335 182.428 7.797 183.066 8.391C183.704 8.985 184.166 9.689 184.452 10.503C184.76 11.295 184.914 12.175 184.914 13.143V23.175C184.914 23.395 184.826 23.593 184.65 23.769C184.496 23.923 184.309 24 184.089 24H180.261C180.019 24 179.821 23.923 179.667 23.769C179.513 23.593 179.436 23.395 179.436 23.175V22.02C179.15 22.438 178.765 22.823 178.281 23.175C177.797 23.527 177.225 23.802 176.565 24C175.927 24.22 175.179 24.33 174.321 24.33ZM175.872 20.568C176.51 20.568 177.082 20.436 177.588 20.172C178.116 19.886 178.523 19.457 178.809 18.885C179.117 18.291 179.271 17.554 179.271 16.674V16.212L176.466 16.707C175.432 16.883 174.673 17.158 174.189 17.532C173.727 17.884 173.496 18.302 173.496 18.786C173.496 19.16 173.606 19.479 173.826 19.743C174.046 20.007 174.332 20.216 174.684 20.37C175.058 20.502 175.454 20.568 175.872 20.568Z" fill="white"/>
<path d="M15.5 0C24.0606 0 31 6.93935 31 15.5C31 24.0606 24.0606 31 15.5 31C6.93935 31 0 24.0606 0 15.5C0 6.93935 6.93935 0 15.5 0ZM17.05 6.2C16.6389 6.2 16.2447 6.3633 15.954 6.65398C15.6633 6.94467 15.5 7.33891 15.5 7.75V9.3H13.95V7.75C13.95 7.33891 13.7867 6.94467 13.496 6.65398C13.2053 6.3633 12.8111 6.2 12.4 6.2C11.9889 6.2 11.5947 6.3633 11.304 6.65398C11.0133 6.94467 10.85 7.33891 10.85 7.75V9.3H9.3C8.88891 9.3 8.49467 9.4633 8.20398 9.75398C7.9133 10.0447 7.75 10.4389 7.75 10.85C7.75 11.2611 7.9133 11.6553 8.20398 11.946C8.49467 12.2367 8.88891 12.4 9.3 12.4V18.6C8.88891 18.6 8.49467 18.7633 8.20398 19.054C7.9133 19.3447 7.75 19.7389 7.75 20.15C7.75 20.5611 7.9133 20.9553 8.20398 21.246C8.49467 21.5367 8.88891 21.7 9.3 21.7H10.85V23.25C10.85 23.6611 11.0133 24.0553 11.304 24.346C11.5947 24.6367 11.9889 24.8 12.4 24.8C12.8111 24.8 13.2053 24.6367 13.496 24.346C13.7867 24.0553 13.95 23.6611 13.95 23.25V21.7H15.5V23.25C15.5 23.6611 15.6633 24.0553 15.954 24.346C16.2447 24.6367 16.6389 24.8 17.05 24.8C17.4611 24.8 17.8553 24.6367 18.146 24.346C18.4367 24.0553 18.6 23.6611 18.6 23.25V21.7H19.375C20.0946 21.7 20.8001 21.4996 21.4122 21.1213C22.0244 20.7429 22.5191 20.2016 22.8409 19.558C23.1627 18.9143 23.299 18.1937 23.2343 17.477C23.1697 16.7603 22.9068 16.0757 22.475 15.5C22.9068 14.9243 23.1697 14.2397 23.2343 13.523C23.299 12.8063 23.1627 12.0857 22.8409 11.442C22.5191 10.7984 22.0244 10.2571 21.4122 9.87873C20.8001 9.50039 20.0946 9.3 19.375 9.3H18.6V7.75C18.6 7.33891 18.4367 6.94467 18.146 6.65398C17.8553 6.3633 17.4611 6.2 17.05 6.2ZM19.375 17.05C19.5805 17.05 19.7777 17.1317 19.923 17.277C20.0683 17.4223 20.15 17.6195 20.15 17.825C20.15 18.0305 20.0683 18.2277 19.923 18.373C19.7777 18.5183 19.5805 18.6 19.375 18.6H12.4V17.05H19.375ZM19.375 12.4C19.5687 12.3996 19.7554 12.4718 19.8986 12.6023C20.0417 12.7328 20.1308 12.9121 20.1483 13.105C20.1658 13.2978 20.1104 13.4903 19.9931 13.6444C19.8758 13.7985 19.7051 13.9031 19.5145 13.9376L19.375 13.95H12.4V12.4H19.375Z" fill="#FFBE17"/>
</g>
<defs>
<clipPath id="clip0_1_5">
<rect width="185" height="31" fill="white"/>
</clipPath>
</defs>
</svg>
